<svg width="26" height="27" viewBox="0 0 26 27" fill="none" xmlns="http://www.w3.org/2000/svg">
<path d="M12.9403 25.8566L6.21525 19.1015C4.88517 17.7655 3.97939 16.0633 3.61243 14.2102C3.24547 12.3571 3.43382 10.4363 4.15366 8.6907C4.8735 6.94511 6.09249 5.45313 7.65651 4.40343C9.22052 3.35373 11.0593 2.79346 12.9403 2.79346C14.8213 2.79346 16.6601 3.35373 18.2241 4.40343C19.7881 5.45313 21.0071 6.94511 21.727 8.6907C22.4468 10.4363 22.6352 12.3571 22.2682 14.2102C21.9012 16.0633 20.9954 17.7655 19.6654 19.1015L12.9403 25.8566ZM18.1711 17.6006C19.2056 16.5615 19.91 15.2375 20.1954 13.7963C20.4807 12.355 20.3342 10.861 19.7743 9.50341C19.2144 8.14576 18.2663 6.98538 17.0499 6.16897C15.8334 5.35257 14.4033 4.91682 12.9403 4.91682C11.4773 4.91682 10.0472 5.35257 8.83075 6.16897C7.61432 6.98538 6.6662 8.14576 6.10631 9.50341C5.54641 10.861 5.39988 12.355 5.68524 13.7963C5.9706 15.2375 6.67504 16.5615 7.70947 17.6006L12.9403 22.8548L18.1711 17.6006V17.6006ZM12.9403 14.4694C12.3798 14.4694 11.8422 14.2457 11.4459 13.8476C11.0495 13.4494 10.8268 12.9095 10.8268 12.3464C10.8268 11.7834 11.0495 11.2434 11.4459 10.8453C11.8422 10.4472 12.3798 10.2235 12.9403 10.2235C13.5008 10.2235 14.0384 10.4472 14.4348 10.8453C14.8311 11.2434 15.0538 11.7834 15.0538 12.3464C15.0538 12.9095 14.8311 13.4494 14.4348 13.8476C14.0384 14.2457 13.5008 14.4694 12.9403 14.4694Z" fill="#070708"/>
</svg>
