<svg width="35" height="35" viewBox="0 0 35 35" fill="none" xmlns="http://www.w3.org/2000/svg">
<g opacity="0.7" clip-path="url(#clip0_5896_128645)">
<path d="M17.5013 32.0833C9.44693 32.0833 2.91797 25.5543 2.91797 17.5C2.91797 9.44558 9.44693 2.91663 17.5013 2.91663C25.5557 2.91663 32.0846 9.44558 32.0846 17.5C32.0846 25.5543 25.5557 32.0833 17.5013 32.0833ZM17.5013 29.1666C20.5955 29.1666 23.563 27.9375 25.7509 25.7495C27.9388 23.5616 29.168 20.5942 29.168 17.5C29.168 14.4058 27.9388 11.4383 25.7509 9.25038C23.563 7.06246 20.5955 5.83329 17.5013 5.83329C14.4071 5.83329 11.4396 7.06246 9.25172 9.25038C7.0638 11.4383 5.83464 14.4058 5.83464 17.5C5.83464 20.5942 7.0638 23.5616 9.25172 25.7495C11.4396 27.9375 14.4071 29.1666 17.5013 29.1666ZM16.043 10.2083H18.9596V13.125H16.043V10.2083ZM16.043 16.0416H18.9596V24.7916H16.043V16.0416Z" fill="#E6EBFF"/>
</g>
<defs>
<clipPath id="clip0_5896_128645">
<rect width="35" height="35" fill="white"/>
</clipPath>
</defs>
</svg>
